<svg width="220" height="266" viewBox="0 0 220 266" fill="none" xmlns="http://www.w3.org/2000/svg">
    <circle cx="20" cy="99" r="20" fill="#000000"/>
    <circle cx="61" cy="99" r="20" fill="#000000"/>
    <circle cx="60.2737" cy="27.2736" r="20" transform="rotate(60.3627 60.2737 27.2736)" fill="#000000"/>
    <circle cx="80.043" cy="62.8209" r="20" transform="rotate(60.3627 80.043 62.8209)" fill="#000000"/>
    <circle cx="142" cy="99" r="20" fill="#000000"/>
    <circle cx="191.902" cy="237.413" r="20" transform="rotate(-123.833 191.902 237.413)" fill="#000000"/>
    <circle cx="168.518" cy="203.525" r="20" transform="rotate(-123.833 168.518 203.525)" fill="#000000"/>
    <circle cx="145.133" cy="169.637" r="20" transform="rotate(-123.833 145.133 169.637)" fill="#000000"/>
    <circle cx="122.749" cy="134.749" r="20" transform="rotate(-123.833 122.749 134.749)" fill="#000000"/>
    <circle cx="182" cy="99" r="20" fill="#000000"/>
    <circle cx="121.227" cy="63.8589" r="20" transform="rotate(-60.7142 121.227 63.8589)" fill="#000000"/>
    <circle cx="145.772" cy="29.2271" r="20" transform="rotate(-60.7142 145.772 29.2271)" fill="#000000"/>
    <circle cx="59.3515" cy="169.771" r="20" transform="rotate(-121.645 59.3515 169.771)" fill="#000000"/>
    <circle cx="82.1834" cy="135.519" r="20" transform="rotate(-121.645 82.1834 135.519)" fill="#000000"/>
</svg>
